<?xml version="1.0" standalone="no"?>
<!DOCTYPE svg PUBLIC "-//W3C//DTD SVG 20010904//EN"
 "http://www.w3.org/TR/2001/REC-SVG-20010904/DTD/svg10.dtd">
<svg version="1.0" xmlns="http://www.w3.org/2000/svg"
 width="300.000000pt" height="300.000000pt" viewBox="0 0 300.000000 300.000000"
 preserveAspectRatio="xMidYMid meet">
<metadata>
Created by potrace 1.11, written by Peter Selinger 2001-2013
</metadata>
<g transform="translate(0.000000,300.000000) scale(0.100000,-0.100000)"
fill="#000000" stroke="none">
<path d="M1767 2949 c12 -14 28 -40 36 -59 12 -31 13 -42 8 -66 0 -4 -11 0
-23 8 -30 19 -106 49 -138 54 -14 3 -32 7 -40 10 -77 28 -407 21 -540 -11 -14
-3 -34 -7 -45 -9 -11 -2 -30 -6 -42 -10 -12 -4 -31 -9 -44 -11 -33 -7 -169
-52 -214 -71 -22 -10 -42 -18 -45 -19 -11 -2 -117 -59 -152 -81 -21 -14 -38
-21 -38 -17 0 5 -4 3 -8 -3 -4 -6 -32 -27 -63 -46 -64 -41 -154 -108 -144
-108 3 0 26 14 50 30 24 17 48 30 53 30 6 0 12 3 14 8 13 30 366 178 493 207
6 1 17 5 25 8 22 8 189 46 230 52 87 14 308 14 380 1 107 -20 214 -62 305
-122 18 -12 25 -12 31 -3 11 19 31 111 28 132 -2 17 0 17 29 -2 49 -30 92
-121 92 -193 0 -53 2 -58 21 -55 25 3 69 30 106 65 15 14 31 23 34 19 10 -9 5
-138 -6 -177 -5 -19 -6 -29 -1 -24 14 14 50 127 57 181 10 68 7 254 -4 265 -5
5 -19 -14 -32 -44 -30 -67 -97 -168 -111 -168 -6 0 -8 4 -5 9 9 13 -14 72 -41
109 -41 55 -102 85 -253 128 l-25 6 22 -23z"/>
<path d="M1300 2481 c-30 -14 -55 -32 -58 -39 -3 -11 0 -12 16 -3 76 41 211
-23 291 -137 13 -18 25 -31 28 -28 6 6 22 72 28 122 4 31 1 44 -13 57 -33 30
-96 50 -168 52 -61 3 -80 -1 -124 -24z"/>
<path d="M2312 2273 c54 -59 103 -133 141 -215 23 -50 76 -118 92 -118 4 0 28
-17 53 -37 63 -51 62 -50 131 -117 34 -33 61 -54 61 -48 0 7 -4 12 -10 12 -5
0 -10 4 -10 9 0 5 -53 62 -118 128 -65 65 -142 154 -172 198 -70 105 -122 167
-173 207 l-42 32 47 -51z"/>
<path d="M2233 2017 c-47 -18 -47 -23 -2 -21 27 1 58 -7 95 -25 30 -16 54 -26
54 -25 0 2 -7 22 -16 44 -15 38 -18 40 -58 39 -22 0 -55 -6 -73 -12z"/>
<path d="M1910 1956 c0 -2 -4 -26 -10 -54 -18 -98 -12 -268 11 -331 6 -14 10
-28 9 -31 -2 -12 24 -106 33 -117 5 -7 7 -13 4 -13 -3 0 11 -44 30 -97 19 -54
39 -114 44 -133 5 -19 12 -42 14 -50 16 -50 36 -155 42 -220 6 -80 6 -312 -1
-345 -3 -11 -5 -28 -5 -37 -2 -36 -18 -16 -30 35 -19 86 -27 83 -40 -15 -21
-163 -82 -313 -178 -443 l-45 -60 75 77 c83 85 141 185 159 273 13 64 23 63
33 -1 4 -26 10 -43 15 -38 5 5 21 45 36 89 30 88 53 260 48 345 -13 191 -20
240 -55 380 -37 146 -35 137 -54 190 -9 25 -18 53 -20 62 -2 9 -8 25 -13 35
-11 22 -5 43 14 43 47 0 173 87 219 152 37 52 35 61 -6 23 -24 -22 -46 -42
-49 -45 -3 -3 -16 -11 -30 -18 -14 -7 -42 -22 -62 -32 -20 -11 -55 -22 -77
-26 -40 -6 -41 -5 -56 29 -31 76 -44 154 -46 285 -1 50 -3 92 -5 92 -2 0 -4
-2 -4 -4z"/>
<path d="M2707 1578 c8 -24 22 -54 33 -68 l19 -25 19 20 c10 11 26 32 36 46
18 29 19 29 -73 58 -49 16 -50 15 -34 -31z"/>
<path d="M2232 1319 c-18 -3 -42 -15 -53 -25 -55 -50 25 -264 98 -264 23 0 63
16 73 30 13 17 57 40 76 40 19 0 21 -5 19 -32 -2 -18 -8 -45 -14 -60 -18 -47
3 -31 27 21 23 51 26 71 15 109 -5 22 -10 23 -49 17 -37 -5 -43 -4 -38 9 3 8
1 22 -4 31 -7 14 -15 9 -46 -34 -21 -28 -40 -51 -42 -51 -3 0 -18 7 -33 15
-35 17 -53 60 -49 111 l3 39 50 0 c28 0 75 -5 105 -12 75 -17 197 -12 235 11
28 16 28 17 5 12 -14 -2 -41 -8 -61 -11 -30 -6 -137 14 -274 49 -5 1 -25 -1
-43 -5z"/>
</g>
</svg>
